<svg width="36" height="40" viewBox="0 0 36 40" fill="none" xmlns="http://www.w3.org/2000/svg">
<path fill-rule="evenodd" clip-rule="evenodd" d="M19.7291 1.82568C17.8838 3.0428 16.3918 4.71143 15.2532 6.83157C15.371 5.88928 15.587 4.71143 15.9011 3.298C14.8017 2.43424 12.819 1.68826 9.95289 1.06007C7.08677 0.392618 4.78995 0.0785246 3.06243 0.117788C2.12014 3.72988 1.37417 7.75422 0.824499 12.1908C0.274833 16.5881 0 20.9266 0 25.2061C0 26.6981 0.0196309 27.7974 0.0588928 28.5041C1.3938 29.682 3.33726 30.5457 5.88928 31.0954C6.62766 31.2632 7.34373 31.4071 8.03748 31.5271C8.33342 32.27 8.69705 32.9741 9.12837 33.6396C10.5025 35.7205 12.3282 37.3106 14.6054 38.4099C16.8826 39.47 19.3365 40 21.967 40C24.4798 40 26.914 39.5092 29.2697 38.5277C31.6647 37.5069 33.7652 36.0345 35.5712 34.1107C35.0216 33.1292 33.883 31.4213 32.1555 28.987C29.6034 30.9501 27.2674 31.9317 25.1472 31.9317C24.0872 31.9317 23.1841 31.6569 22.4381 31.1072C21.6922 30.5575 21.1425 29.7527 20.7892 28.6926C23.4982 28.6141 25.8932 28.1037 27.9741 27.1614C30.055 26.2191 31.6647 24.9431 32.8033 23.3333C33.9811 21.6843 34.5701 19.839 34.5701 17.7974C34.5701 15.7558 34.0597 14.0086 33.0389 12.5559C32.5431 11.8024 31.9621 11.1439 31.2961 10.5807C31.712 9.83676 31.9199 9.0582 31.9199 8.24499C31.9199 5.53592 31.2917 3.49431 30.0353 2.12014C28.8182 0.706715 27.2477 0 25.3239 0C23.4786 0 21.6137 0.60856 19.7291 1.82568ZM31.2961 10.5807C30.6435 10.0288 29.9091 9.56824 29.093 9.19906C27.444 8.45308 25.6184 8.0801 23.616 8.0801C20.9069 8.0801 18.2764 8.76718 15.7244 10.1413C13.2116 11.4762 11.1307 13.5179 9.48173 16.2662C7.87199 18.9753 7.06713 22.2536 7.06713 26.1013C7.06713 28.0947 7.39058 29.9033 8.03748 31.5271C9.77839 31.8282 11.3788 31.9788 12.8386 31.9788V31.9199C13.7024 26.5018 14.7428 21.8296 15.96 17.9034C17.1771 13.938 18.4727 11.9552 19.8469 11.9552C20.161 11.9552 20.534 12.1319 20.9658 12.4853C21.9081 13.6631 23.2038 14.2521 24.8528 14.2521C25.9914 14.2521 27.0907 13.9772 28.1508 13.4276C29.2501 12.8779 30.1531 12.1516 30.8598 11.2485C31.0244 11.0291 31.1698 10.8065 31.2961 10.5807ZM26.1484 17.9152C26.3447 18.19 26.4429 18.5826 26.4429 19.0931C26.4429 20.0353 25.9325 20.9384 24.9116 21.8021C23.9301 22.6659 22.5167 23.1567 20.6714 23.2744C21.064 21.6254 21.7314 20.2513 22.6737 19.1519C23.6553 18.0526 24.5387 17.5029 25.3239 17.5029C25.6773 17.5029 25.9521 17.6404 26.1484 17.9152Z" fill="#96D35C"/>
</svg>
