<svg width="59" height="29" viewBox="0 0 59 29" fill="none" xmlns="http://www.w3.org/2000/svg">
<path d="M55.1422 18.1192C55.5566 18.1101 56.1077 18.1832 56.7952 18.3387C57.4828 18.4851 57.9585 18.6589 58.2222 18.8601C58.0244 19.8206 57.869 20.8863 57.756 22.0571C57.643 23.2189 57.5817 24.3852 57.5723 25.556C57.0731 25.556 56.5127 25.4874 55.891 25.3502C55.2788 25.2221 54.8125 25.0209 54.4923 24.7465C54.4829 24.5544 54.4782 24.2662 54.4782 23.8821C54.4782 22.6289 54.5677 21.3574 54.7466 20.0676C54.2851 20.6347 53.8518 21.4214 53.4468 22.4276C53.0512 23.4247 52.7733 24.4446 52.6132 25.4874L52.585 25.4462V25.5286C52.0575 25.5103 51.4924 25.4371 50.8895 25.309C50.2867 25.181 49.8299 24.9843 49.5191 24.719C49.5944 20.5387 49.9382 17.1999 50.5505 14.7027C50.9743 14.6935 51.5442 14.7667 52.26 14.9222C52.9758 15.0777 53.4327 15.2515 53.6305 15.4436C53.2631 17.7213 53.0041 19.5919 52.8534 21.0555C53.0795 20.3512 53.3903 19.7429 53.7859 19.2306C54.1909 18.7092 54.643 18.3387 55.1422 18.1192Z" fill="#19310C"/>
<path d="M45.5736 20.4655C45.5736 20.6942 45.6678 20.8909 45.8562 21.0555C46.054 21.2202 46.3601 21.4168 46.7745 21.6455C47.1419 21.8468 47.4386 22.0251 47.6646 22.1806C47.8907 22.3361 48.0838 22.5374 48.2439 22.7844C48.404 23.0222 48.4841 23.3058 48.4841 23.6351C48.4841 24.0376 48.3334 24.3943 48.032 24.7053C47.74 25.0072 47.3444 25.2404 46.8452 25.4051C46.3554 25.5697 45.8279 25.6521 45.2628 25.6521C44.6317 25.6521 44.0336 25.5469 43.4685 25.3365C42.9033 25.1261 42.4371 24.8151 42.0697 24.4035C42.2299 23.8272 42.4229 23.3561 42.649 22.9902C42.9787 23.2646 43.2942 23.4704 43.5956 23.6076C43.897 23.7357 44.1655 23.7997 44.4009 23.7997C44.5987 23.7997 44.7541 23.7631 44.8672 23.69C44.9896 23.6076 45.0508 23.507 45.0508 23.3881C45.0508 23.1777 44.9755 22.9993 44.8248 22.853C44.6741 22.7066 44.4339 22.5282 44.1042 22.3179C43.671 22.0617 43.3366 21.8102 43.1011 21.5632C42.8751 21.3071 42.762 20.964 42.762 20.5341C42.762 20.0402 42.9127 19.6194 43.2141 19.2718C43.5155 18.915 43.9064 18.6498 44.3868 18.476C44.8766 18.293 45.3946 18.2015 45.9409 18.2015C46.4401 18.2015 46.9064 18.2793 47.3397 18.4348C47.7729 18.5903 48.1214 18.819 48.3852 19.1208C48.6583 19.4227 48.7949 19.7886 48.7949 20.2185C48.7949 20.6027 48.6583 20.9092 48.3852 21.1378C48.1214 21.3574 47.8106 21.4671 47.4527 21.4671C47.1607 21.4671 46.9111 21.3848 46.7039 21.2202C46.4967 21.0464 46.3931 20.8085 46.3931 20.5067C46.3931 20.3329 46.3507 20.2002 46.2659 20.1088C46.1811 20.0081 46.0822 19.9578 45.9692 19.9578C45.8656 19.9578 45.7714 20.0036 45.6866 20.095C45.6113 20.1774 45.5736 20.3009 45.5736 20.4655Z" fill="#19310C"/>
<path d="M41.0898 25.556C40.6 25.556 40.0443 25.4873 39.4226 25.3501C38.8104 25.2221 38.3442 25.0208 38.0239 24.7464C38.0239 23.603 38.0757 22.4596 38.1793 21.3162C38.2924 20.1636 38.4572 19.1071 38.6738 18.1466C39.0883 18.1374 39.6393 18.2106 40.3269 18.3661C41.0145 18.5125 41.4901 18.6863 41.7538 18.8875C41.556 19.8389 41.4006 20.8954 41.2876 22.0571C41.1746 23.2188 41.1086 24.3851 41.0898 25.556ZM40.1715 17.5977C39.7853 17.5977 39.4792 17.4285 39.2531 17.0901C39.027 16.7425 38.914 16.3354 38.914 15.8689C38.914 15.4664 39.0883 15.1417 39.4368 14.8947C39.7853 14.6477 40.1762 14.5242 40.6094 14.5242C40.9956 14.5242 41.2923 14.7026 41.4995 15.0594C41.7162 15.407 41.8245 15.814 41.8245 16.2805C41.8245 16.6373 41.6738 16.9483 41.3724 17.2136C41.0804 17.4697 40.6801 17.5977 40.1715 17.5977Z" fill="#19310C"/>
<path d="M36.5945 25.556C36.0953 25.556 35.5208 25.4874 34.8709 25.3502C34.2209 25.2221 33.7406 25.0209 33.4297 24.7464C33.458 23.1548 33.5616 21.4717 33.7406 19.6971C33.929 17.9134 34.1738 16.2485 34.4753 14.7026C34.7296 14.6935 35.0875 14.7255 35.549 14.7987C36.0106 14.8627 36.4438 14.9542 36.8488 15.0731C37.2539 15.1829 37.5223 15.3018 37.6542 15.4299C37.3716 16.9575 37.1361 18.604 36.9477 20.3694C36.7688 22.1257 36.651 23.8546 36.5945 25.556Z" fill="#19310C"/>
<path d="M29.5692 18.1192C30.0873 18.1192 30.6336 18.1832 31.2081 18.3113C31.7921 18.4302 32.2772 18.6131 32.6634 18.8601C32.5221 20.4426 32.3855 21.7919 32.2536 22.9078C32.1312 24.0238 31.9899 25.0209 31.8298 25.899C31.7167 26.5485 31.4342 27.1065 30.9821 27.573C30.5394 28.0395 30.0119 28.3917 29.3997 28.6295C28.7874 28.8765 28.1752 29 27.563 29C26.8377 29 26.2349 28.8353 25.7545 28.506C25.2836 28.1859 25.0481 27.7285 25.0481 27.1339C25.0481 26.7955 25.1705 26.5028 25.4154 26.2558C25.6603 26.0179 25.9806 25.899 26.3762 25.899C26.6587 25.899 26.8565 25.9585 26.9696 26.0774C27.0826 26.1963 27.1815 26.3747 27.2663 26.6125C27.3322 26.8138 27.4076 26.9647 27.4923 27.0653C27.5771 27.1659 27.7184 27.2162 27.9162 27.2162C28.4719 27.2162 28.8863 26.4845 29.1595 25.0209C28.7451 25.4234 28.2553 25.6246 27.6901 25.6246C27.2569 25.6246 26.8424 25.4965 26.4468 25.2404C26.0512 24.9843 25.731 24.6092 25.4861 24.1153C25.2412 23.6213 25.1187 23.0359 25.1187 22.359C25.1187 21.4626 25.2553 20.6942 25.5285 20.0539C25.811 19.4135 26.1737 18.9287 26.6164 18.5994C27.0685 18.2701 27.5347 18.1055 28.0151 18.1055C28.3071 18.1055 28.5849 18.1695 28.8487 18.2976C29.1218 18.4256 29.362 18.6131 29.5692 18.8601V18.1192ZM27.8597 22.2767C27.8597 22.6151 27.9303 22.885 28.0716 23.0862C28.2129 23.2875 28.3824 23.3881 28.5802 23.3881C28.778 23.3881 28.957 23.2783 29.1171 23.0588C29.2772 22.8301 29.3761 22.5008 29.4138 22.0709C29.4232 21.7415 29.3432 21.4717 29.1736 21.2613C29.0135 21.0418 28.8298 20.932 28.6226 20.932C28.4154 20.932 28.2364 21.0463 28.0857 21.275C27.935 21.5037 27.8597 21.8376 27.8597 22.2767Z" fill="#19310C"/>
<path d="M21.4619 18.1603C21.8857 18.1695 22.4368 18.2518 23.1149 18.4073C23.8025 18.5537 24.2782 18.7183 24.5419 18.9013C24.3441 19.8618 24.1887 20.9228 24.0757 22.0846C23.9626 23.2371 23.9014 24.3943 23.892 25.556C23.3928 25.556 22.8324 25.4874 22.2107 25.3502C21.5985 25.2221 21.1322 25.0209 20.812 24.7465C20.8026 24.5452 20.7978 24.2342 20.7978 23.8134C20.7978 22.7523 20.8638 21.6821 20.9956 20.6027C20.5341 21.1424 20.115 21.8467 19.7382 22.7157C19.3615 23.5756 19.093 24.4995 18.9329 25.4874V25.556C18.4337 25.556 17.8732 25.4874 17.2516 25.3502C16.6394 25.2221 16.1731 25.0209 15.8529 24.7465C15.8435 24.5544 15.8387 24.2571 15.8387 23.8546C15.8387 22.8575 15.8953 21.8605 16.0083 20.8634C16.1307 19.8572 16.2956 18.947 16.5028 18.1329C16.9078 18.1238 17.4541 18.1969 18.1417 18.3524C18.8293 18.4988 19.3096 18.6726 19.5828 18.8738C19.4604 19.4959 19.3473 20.1773 19.2437 20.9183C19.4792 20.2871 19.79 19.7291 20.1762 19.2443C20.5624 18.7595 20.9909 18.3982 21.4619 18.1603Z" fill="#19310C"/>
<path d="M13.4842 18.078C12.4764 18.0323 11.6052 18.0094 10.8705 18.0094C10.8328 18.3204 10.7857 18.7915 10.7292 19.4227C11.2284 19.3587 11.6993 19.3266 12.142 19.3266C12.5282 19.3266 12.8861 19.3495 13.2158 19.3953C13.3759 20.2002 13.4371 20.9686 13.3995 21.7004C13.0981 21.6638 12.7637 21.6455 12.3963 21.6455C11.7935 21.6455 11.2284 21.705 10.7009 21.8239C10.6821 21.769 10.6538 21.6592 10.6162 21.4946L10.5738 23.0313C11.9207 22.9124 13.1781 22.853 14.3461 22.853C14.4497 23.1365 14.5015 23.5116 14.5015 23.9781C14.5015 24.2617 14.4827 24.5544 14.445 24.8562C14.4167 25.1489 14.3979 25.3319 14.3885 25.4051C13.6538 25.3868 13.1169 25.3776 12.7778 25.3776C11.1766 25.3776 9.42466 25.4737 7.52202 25.6658C7.38073 25.5103 7.263 25.2358 7.16881 24.8425C7.05578 24.7693 6.98985 24.7236 6.97101 24.7053L6.95688 23.7037C6.95688 20.7582 7.15468 18.4211 7.55028 16.6922C7.52202 16.4727 7.50789 16.2669 7.50789 16.0748C7.50789 15.9375 7.51731 15.7866 7.53615 15.622C8.51572 15.4939 9.60833 15.4299 10.814 15.4299C12.2551 15.4299 13.569 15.5168 14.7558 15.6906C14.8594 15.9741 14.9112 16.3309 14.9112 16.7608C14.9112 17.0169 14.8924 17.2868 14.8547 17.5704C14.8265 17.8539 14.8076 18.0369 14.7982 18.1192L13.4842 18.078Z" fill="#19310C"/>
<path d="M58.2918 4.17275C58.0375 5.35276 57.8397 6.48246 57.6984 7.56185C57.5665 8.64124 57.5053 9.73892 57.5147 10.8549H56.8648C56.3467 10.8549 55.8805 10.8229 55.4661 10.7589C55.0611 10.704 54.722 10.5896 54.4488 10.4158L54.4347 10.1414C54.2275 10.3609 53.9779 10.5256 53.6859 10.6354C53.4033 10.7451 53.1019 10.8 52.7817 10.8C52.3013 10.8 51.835 10.6765 51.3829 10.4295C50.9402 10.1826 50.5776 9.82125 50.295 9.34558C50.0125 8.86992 49.8712 8.30736 49.8712 7.6579C49.8712 6.71572 50.0313 5.92447 50.3516 5.28415C50.6812 4.64384 51.0957 4.17275 51.5949 3.87089C52.1035 3.56902 52.6262 3.41809 53.1631 3.41809C53.5493 3.41809 53.9025 3.49127 54.2228 3.63763C54.5524 3.78399 54.8114 3.99437 54.9998 4.2688C55.0375 4.12244 55.0611 4.01267 55.0705 3.93949L55.1976 3.44553C55.6592 3.44553 56.2008 3.51871 56.8224 3.66507C57.4535 3.81143 57.9433 3.98065 58.2918 4.17275ZM52.8947 7.49324C52.8947 7.86828 52.9747 8.16557 53.1349 8.38511C53.295 8.60465 53.4834 8.71442 53.7 8.71442C53.9072 8.71442 54.0909 8.6138 54.251 8.41255C54.4111 8.21131 54.5006 7.92774 54.5195 7.56185V7.49324C54.5383 7.05417 54.4629 6.71114 54.2934 6.46416C54.1333 6.20804 53.9402 6.07997 53.7141 6.07997C53.4881 6.07997 53.295 6.20346 53.1349 6.45044C52.9747 6.69742 52.8947 7.04502 52.8947 7.49324Z" fill="#19310C"/>
<path d="M46.2144 3.4593C46.6382 3.46844 47.1892 3.55077 47.8674 3.70627C48.555 3.85263 49.0306 4.01728 49.2944 4.20023C49.0966 5.16071 48.9412 6.2218 48.8281 7.38352C48.7151 8.53608 48.6539 9.69323 48.6445 10.8549C48.1453 10.8549 47.5848 10.7863 46.9632 10.6491C46.3509 10.5211 45.8847 10.3198 45.5644 10.0454C45.555 9.84416 45.5503 9.53315 45.5503 9.11237C45.5503 8.05127 45.6162 6.98103 45.7481 5.90164C45.2866 6.44134 44.8674 7.14568 44.4907 8.01468C44.1139 8.87454 43.8455 9.79842 43.6854 10.7863V10.8549C43.1861 10.8549 42.6257 10.7863 42.0041 10.6491C41.3918 10.5211 40.9256 10.3198 40.6053 10.0454C40.5959 9.8533 40.5912 9.55602 40.5912 9.15353C40.5912 8.15647 40.6477 7.15941 40.7608 6.16234C40.8832 5.15613 41.048 4.24597 41.2553 3.43185C41.6603 3.42271 42.2066 3.49588 42.8942 3.65139C43.5817 3.79775 44.0621 3.97155 44.3353 4.17279C44.2128 4.79481 44.0998 5.47629 43.9962 6.21723C44.2317 5.58606 44.5425 5.02807 44.9287 4.54326C45.3148 4.05845 45.7434 3.69713 46.2144 3.4593Z" fill="#19310C"/>
<path d="M39.8447 4.17275C39.5904 5.35276 39.3926 6.48246 39.2513 7.56185C39.1195 8.64124 39.0582 9.73892 39.0676 10.8549H38.4177C37.8997 10.8549 37.4335 10.8229 37.019 10.7589C36.614 10.704 36.2749 10.5896 36.0018 10.4158L35.9876 10.1414C35.7804 10.3609 35.5308 10.5256 35.2388 10.6354C34.9563 10.7451 34.6549 10.8 34.3346 10.8C33.8542 10.8 33.388 10.6765 32.9359 10.4295C32.4932 10.1826 32.1306 9.82125 31.848 9.34558C31.5654 8.86992 31.4241 8.30736 31.4241 7.6579C31.4241 6.71572 31.5843 5.92447 31.9045 5.28415C32.2342 4.64384 32.6486 4.17275 33.1478 3.87089C33.6564 3.56902 34.1792 3.41809 34.7161 3.41809C35.1023 3.41809 35.4555 3.49127 35.7757 3.63763C36.1054 3.78399 36.3644 3.99437 36.5528 4.2688C36.5905 4.12244 36.614 4.01267 36.6234 3.93949L36.7506 3.44553C37.2121 3.44553 37.7537 3.51871 38.3754 3.66507C39.0064 3.81143 39.4962 3.98065 39.8447 4.17275ZM34.4476 7.49324C34.4476 7.86828 34.5277 8.16557 34.6878 8.38511C34.8479 8.60465 35.0363 8.71442 35.253 8.71442C35.4602 8.71442 35.6438 8.6138 35.804 8.41255C35.9641 8.21131 36.0536 7.92774 36.0724 7.56185V7.49324C36.0912 7.05417 36.0159 6.71114 35.8464 6.46416C35.6862 6.20804 35.4931 6.07997 35.2671 6.07997C35.041 6.07997 34.8479 6.20346 34.6878 6.45044C34.5277 6.69742 34.4476 7.04502 34.4476 7.49324Z" fill="#19310C"/>
<path d="M30.1926 10.8549C29.6933 10.8549 29.1188 10.7863 28.4689 10.6491C27.819 10.521 27.3386 10.3198 27.0278 10.0453C27.056 8.45369 27.1596 6.77058 27.3386 4.99599C27.527 3.21225 27.7719 1.54743 28.0733 0.00152452C28.3276 -0.00762273 28.6855 0.0243932 29.147 0.0975723C29.6086 0.161604 30.0419 0.253077 30.4469 0.371993C30.8519 0.481762 31.1203 0.600677 31.2522 0.728741C30.9696 2.25635 30.7341 3.90288 30.5458 5.66832C30.3668 7.42461 30.2491 9.15346 30.1926 10.8549Z" fill="#19310C"/>
<path d="M23.1529 5.76434C23.1529 5.99302 23.2471 6.18969 23.4355 6.35434C23.6333 6.519 23.9394 6.71567 24.3538 6.94435C24.7212 7.14559 25.0179 7.32397 25.2439 7.47947C25.47 7.63498 25.6631 7.83622 25.8232 8.0832C25.9833 8.32103 26.0634 8.6046 26.0634 8.9339C26.0634 9.33639 25.9127 9.69313 25.6113 10.0041C25.3193 10.306 24.9237 10.5393 24.4245 10.7039C23.9347 10.8686 23.4072 10.9509 22.8421 10.9509C22.211 10.9509 21.6129 10.8457 21.0478 10.6353C20.4826 10.4249 20.0164 10.1139 19.649 9.70228C19.8092 9.126 20.0023 8.65491 20.2283 8.28901C20.558 8.56343 20.8735 8.76925 21.1749 8.90646C21.4763 9.03452 21.7448 9.09855 21.9802 9.09855C22.178 9.09855 22.3335 9.06196 22.4465 8.98879C22.5689 8.90646 22.6302 8.80584 22.6302 8.68692C22.6302 8.47653 22.5548 8.29816 22.4041 8.1518C22.2534 8.00544 22.0132 7.82707 21.6836 7.61668C21.2503 7.36055 20.9159 7.109 20.6804 6.86202C20.4544 6.6059 20.3413 6.26287 20.3413 5.83294C20.3413 5.33899 20.492 4.91821 20.7935 4.57061C21.0949 4.21386 21.4858 3.94859 21.9661 3.77479C22.4559 3.59184 22.974 3.50037 23.5203 3.50037C24.0195 3.50037 24.4857 3.57812 24.919 3.73362C25.3523 3.88913 25.7008 4.11781 25.9645 4.41968C26.2376 4.72154 26.3742 5.08743 26.3742 5.51736C26.3742 5.90155 26.2376 6.20799 25.9645 6.43667C25.7008 6.65621 25.3899 6.76598 25.032 6.76598C24.74 6.76598 24.4904 6.68365 24.2832 6.519C24.076 6.3452 23.9724 6.10737 23.9724 5.8055C23.9724 5.6317 23.93 5.49907 23.8452 5.40759C23.7604 5.30697 23.6615 5.25666 23.5485 5.25666C23.4449 5.25666 23.3507 5.3024 23.2659 5.39387C23.1906 5.4762 23.1529 5.59969 23.1529 5.76434Z" fill="#19310C"/>
<path d="M16.2465 3.44553C16.6609 3.43638 17.2119 3.50956 17.8995 3.66506C18.5871 3.81142 19.0628 3.98522 19.3265 4.18646C19.1287 5.15608 18.9686 6.2309 18.8461 7.41091C18.7331 8.58177 18.6719 9.74806 18.6625 10.9098C18.1633 10.9098 17.6028 10.8412 16.9812 10.704C16.3689 10.5759 15.9027 10.3747 15.5825 10.1002C15.573 9.93558 15.5683 9.68403 15.5683 9.34558C15.5683 8.87906 15.573 8.53146 15.5825 8.30278C15.3281 8.9248 15.0409 9.46907 14.7206 9.93558C14.4098 10.393 14.0707 10.7177 13.7034 10.9098C13.2042 10.9098 12.6437 10.8412 12.0221 10.704C11.4098 10.5759 10.9436 10.3747 10.6234 10.1002C10.6139 9.90814 10.6092 9.62 10.6092 9.23581C10.6092 8.22045 10.6657 7.20509 10.7788 6.18974C10.9012 5.17438 11.0708 4.25964 11.2874 3.44553C11.7018 3.43638 12.2528 3.50956 12.9404 3.66506C13.628 3.81142 14.1037 3.98522 14.3674 4.18646C14.0754 5.6043 13.8776 7.15936 13.774 8.85162C14.2732 8.3851 14.7159 7.76766 15.1021 6.99928C15.4977 6.2309 15.8038 5.35275 16.0204 4.36484L16.0346 4.37856C16.0911 4.07669 16.1617 3.76568 16.2465 3.44553Z" fill="#19310C"/>
<path d="M6.90391 6.62875C7.27125 7.16845 7.67156 7.68985 8.10483 8.19295C8.54753 8.69606 8.94784 9.08025 9.30576 9.34552C8.98551 9.66568 8.57108 9.99498 8.06245 10.3334C7.56324 10.6719 7.08287 10.9234 6.62134 11.0881C5.81131 10.0361 5.03895 8.8104 4.30427 7.41085C4.05938 7.42915 3.87571 7.43829 3.75326 7.43829C3.67791 8.59086 3.64023 9.74343 3.64023 10.896C3.09393 10.896 2.45344 10.8 1.71876 10.6079C0.993494 10.4249 0.517834 10.2282 0.291779 10.0179V9.45529C0.291779 8.3759 0.343583 7.27364 0.447192 6.14852C0.550801 5.02339 0.696795 3.95315 0.885175 2.93779H1.11123C0.951108 2.29747 0.871047 1.73948 0.871047 1.26382C2.11435 0.861337 3.25876 0.660095 4.30427 0.660095C5.1614 0.660095 5.90079 0.797306 6.52244 1.07173C7.15352 1.337 7.6386 1.72119 7.97768 2.2243C8.31676 2.71825 8.4863 3.30368 8.4863 3.98059C8.4863 4.48369 8.34973 4.96851 8.07658 5.43502C7.80343 5.90154 7.41254 6.29945 6.90391 6.62875ZM3.40005 3.34942C3.83332 3.48663 4.11589 3.61927 4.24776 3.74733C4.10647 4.50656 3.99815 5.16517 3.9228 5.72316C4.85528 5.66828 5.32152 5.26122 5.32152 4.50199C5.32152 4.1178 5.18024 3.82508 4.89767 3.62384C4.62452 3.4226 4.25718 3.32198 3.79564 3.32198C3.72029 3.32198 3.58843 3.33113 3.40005 3.34942Z" fill="#19310C"/>
</svg>
