<svg width="23" height="26" viewBox="0 0 23 26" fill="none" xmlns="http://www.w3.org/2000/svg">
<path fill-rule="evenodd" clip-rule="evenodd" d="M12.7566 1.18669C11.5635 1.97782 10.5988 3.06243 9.86258 4.44052C9.93874 3.82803 10.0784 3.06243 10.2815 2.1437C9.57064 1.58225 8.28863 1.09737 6.43543 0.689046C4.58223 0.255201 3.09713 0.051041 1.98013 0.0765624C1.37086 2.42442 0.888521 5.04025 0.533113 7.92403C0.177704 10.7823 0 13.6023 0 16.384C0 17.3538 0.0126932 18.0683 0.0380794 18.5277C0.901214 19.2933 2.15784 19.8547 3.80795 20.212C4.28538 20.3211 4.74838 20.4146 5.19696 20.4926C5.38831 20.9755 5.62344 21.4332 5.90233 21.8657C6.79086 23.2183 7.97132 24.2519 9.44372 24.9665C10.9161 25.6555 12.5028 26 14.2037 26C15.8284 26 17.4023 25.681 18.9255 25.043C20.4741 24.3795 21.8322 23.4225 23 22.172C22.6446 21.534 21.9084 20.4239 20.7914 18.8416C19.1413 20.1176 17.6308 20.7556 16.26 20.7556C15.5745 20.7556 14.9906 20.577 14.5083 20.2197C14.026 19.8624 13.6705 19.3392 13.4421 18.6502C15.1937 18.5992 16.7423 18.2674 18.0878 17.6549C19.4332 17.0424 20.4741 16.213 21.2103 15.1667C21.9719 14.0948 22.3527 12.8954 22.3527 11.5683C22.3527 10.2413 22.0226 9.10563 21.3626 8.16138C21.042 7.67154 20.6664 7.24355 20.2357 6.87742C20.5046 6.39389 20.6391 5.88783 20.6391 5.35925C20.6391 3.59835 20.2329 2.2713 19.4205 1.37809C18.6336 0.459365 17.6181 0 16.3742 0C15.181 0 13.9752 0.395564 12.7566 1.18669ZM20.2357 6.87742C19.8137 6.51871 19.3389 6.21936 18.8113 5.9794C17.745 5.49452 16.5646 5.25208 15.2699 5.25208C13.5182 5.25208 11.8173 5.69868 10.1672 6.59189C8.54251 7.45958 7.19704 8.78663 6.13081 10.573C5.08997 12.3339 4.56955 14.4649 4.56955 16.9659C4.56955 18.2616 4.77868 19.4372 5.19696 20.4926C6.32261 20.6884 7.3574 20.7862 8.30132 20.7862V20.7479C8.85982 17.2262 9.53256 14.1892 10.3195 11.6372C11.1065 9.05968 11.9443 7.77091 12.8328 7.77091C13.0359 7.77091 13.277 7.88575 13.5563 8.11543C14.1656 8.88104 15.0033 9.26384 16.0695 9.26384C16.8057 9.26384 17.5166 9.0852 18.202 8.72792C18.9128 8.37064 19.4967 7.89851 19.9536 7.31155C20.0601 7.16891 20.1541 7.02421 20.2357 6.87742ZM16.9073 11.6449C17.0342 11.8235 17.0977 12.0787 17.0977 12.4105C17.0977 13.023 16.7677 13.61 16.1076 14.1714C15.473 14.7328 14.5591 15.0518 13.3659 15.1284C13.6198 14.0566 14.0513 13.1633 14.6606 12.4488C15.2953 11.7342 15.8665 11.3769 16.3742 11.3769C16.6027 11.3769 16.7804 11.4663 16.9073 11.6449Z" fill="#E2B143"/>
</svg>
